<?xml version="1.0" encoding="UTF-8" standalone="no"?>
<!DOCTYPE svg PUBLIC "-//W3C//DTD SVG 1.1//EN" "http://www.w3.org/Graphics/SVG/1.1/DTD/svg11.dtd">
<!-- Created with Vectornator (http://vectornator.io/) -->
<svg height="80.0pt" stroke-miterlimit="10" style="fill-rule:nonzero;clip-rule:evenodd;stroke-linecap:round;stroke-linejoin:round;" version="1.1" viewBox="0 0 80 80" width="80.0pt" xml:space="preserve" xmlns="http://www.w3.org/2000/svg" xmlns:vectornator="http://vectornator.io" xmlns:xlink="http://www.w3.org/1999/xlink">
<defs>
<radialGradient cx="0" cy="0" gradientTransform="matrix(91.9728 0 0 -92.0222 77.6577 2.95089)" gradientUnits="userSpaceOnUse" id="RadialGradient" r="1">
<stop offset="0" stop-color="#e44857"/>
<stop offset="0.47" stop-color="#c711e1"/>
<stop offset="1" stop-color="#7f52ff"/>
</radialGradient>
</defs>
<path d="M0 0L80 0L80 80L0 80L0 0Z" fill="#ffffff" fill-rule="nonzero" opacity="1" stroke="none" vectornator:artboardBackground="true" vectornator:layerName="Rectangle"/>
<g id="Untitled" vectornator:layerName="Untitled">
<path d="M0 0L80 0L80 80L0 80L0 0Z" fill="url(#RadialGradient)" fill-rule="nonzero" opacity="1" stroke="none" vectornator:layerName="path"/>
</g>
<g id="Layer-1" vectornator:layerName="Layer 1"/>
<clipPath id="ArtboardFrame">
<rect height="80" width="80" x="0" y="0"/>
</clipPath>
<g clip-path="url(#ArtboardFrame)" id="Layer-1_2" vectornator:layerName="Layer-1">
<path d="M1331.77 821.674L2376.32 821.674L2376.32 2347.83L1331.77 2347.83L1331.77 821.674Z" fill="#000002" fill-rule="nonzero" opacity="1" stroke="none" vectornator:layerName="path"/>
<path d="M1213.54 758.11L1481.97 758.11L1481.97 948.005L1213.54 948.005L1213.54 758.11Z" fill="#000002" fill-rule="nonzero" opacity="1" stroke="none" vectornator:layerName="path"/>
<path d="M75 75L5 75L5 5L75 5L75 75Z" fill="#000002" fill-rule="nonzero" opacity="1" stroke="none" vectornator:layerName="path"/>
<path d="M72.9124 7.49409L80 0" fill="none" opacity="1" stroke="#000002" stroke-linecap="butt" stroke-linejoin="round" stroke-width="1" vectornator:layerName="path"/>
<path d="M72.9124 72.3869L80 80" fill="none" opacity="1" stroke="#000002" stroke-linecap="butt" stroke-linejoin="round" stroke-width="1" vectornator:layerName="path"/>
<path d="M42.2096 71.5408C43.1002 71.4991 43.7148 71.1736 44.0534 70.5642C44.2305 70.2517 44.319 69.8898 44.319 69.4783C44.319 68.8273 44.0794 68.3325 43.6002 67.9939C43.3242 67.796 42.8607 67.6085 42.2096 67.4314L42.2096 71.5408ZM39.5612 64.0017C39.5612 64.5174 39.7318 64.921 40.0729 65.2127C40.414 65.5043 40.8737 65.7075 41.4518 65.822L41.4518 62.1502C40.7695 62.1762 40.2838 62.3845 39.9948 62.7752C39.7057 63.1658 39.5612 63.5747 39.5612 64.0017ZM38.1549 64.0955C38.1549 63.3038 38.4453 62.5903 39.026 61.9549C39.6068 61.3194 40.4206 60.9965 41.4674 60.9861L41.4674 59.947L42.2096 59.947L42.2096 60.9705C43.2461 61.0434 44.0417 61.3494 44.5963 61.8885C45.151 62.4275 45.4414 63.1398 45.4674 64.0252L44.1002 64.0252C44.0638 63.6293 43.957 63.2882 43.7799 63.0017C43.4518 62.4757 42.9284 62.1997 42.2096 62.1736L42.2096 65.9705C43.418 66.309 44.2383 66.6267 44.6706 66.9236C45.3737 67.4132 45.7252 68.1372 45.7252 69.0955C45.7252 70.4809 45.2747 71.4653 44.3737 72.0486C43.8737 72.3715 43.1523 72.5851 42.2096 72.6892L42.2096 74.2049L41.4674 74.2049L41.4674 72.6892C39.9518 72.5903 38.9232 72.0538 38.3815 71.0799C38.0846 70.5538 37.9362 69.8429 37.9362 68.947L39.319 68.947C39.3607 69.6606 39.4726 70.1814 39.6549 70.5095C39.9778 71.0981 40.5768 71.4288 41.4518 71.5017L41.4518 67.2439C40.3268 67.0304 39.4961 66.6736 38.9596 66.1736C38.4232 65.6736 38.1549 64.9809 38.1549 64.0955Z" fill="#ffffff" opacity="0.64593" stroke="none" vectornator:layerName="Text 6"/>
<g fill="#ffffff" opacity="0.446438" stroke="none" vectornator:layerName="Text 7">
<path d="M8.19804 30.7032L8.19804 31.3829C8.15117 31.377 8.07255 31.3726 7.9622 31.3697C7.85185 31.3667 7.77568 31.3912 7.73369 31.4429C7.69169 31.4947 7.6707 31.5518 7.6707 31.6143L7.6707 31.8838L8.21855 31.8838L8.21855 32.4727L7.6707 32.4727L7.6707 35.0479L6.83867 35.0479L6.83867 32.4727L6.37285 32.4727L6.37285 31.8838L6.82988 31.8838L6.82988 31.6788C6.82988 31.337 6.88749 31.1016 7.00273 30.9727C7.12382 30.7813 7.41581 30.6856 7.87871 30.6856C7.93144 30.6856 7.97929 30.6871 8.02226 30.69C8.06523 30.6929 8.12382 30.6973 8.19804 30.7032Z"/>
<path d="M10.7469 34.5967C10.7391 34.6065 10.7195 34.6358 10.6883 34.6846C10.657 34.7334 10.6199 34.7764 10.5769 34.8135C10.4461 34.9307 10.3196 35.0108 10.1976 35.0538C10.0755 35.0967 9.93242 35.1182 9.76835 35.1182C9.2957 35.1182 8.97734 34.9483 8.81328 34.6084C8.72148 34.4209 8.67558 34.1446 8.67558 33.7793L8.67558 31.8545L9.53105 31.8545L9.53105 33.7793C9.53105 33.961 9.55253 34.0977 9.5955 34.1895C9.67167 34.3516 9.82109 34.4327 10.0437 34.4327C10.3289 34.4327 10.5242 34.3174 10.6297 34.087C10.6844 33.962 10.7117 33.7969 10.7117 33.5918L10.7117 31.8545L11.5584 31.8545L11.5584 35.0479L10.7469 35.0479L10.7469 34.5967Z"/>
<path d="M13.867 32.4727C13.5838 32.4727 13.3894 32.5928 13.284 32.833C13.2293 32.96 13.2019 33.1221 13.2019 33.3194L13.2019 35.0479L12.3699 35.0479L12.3699 31.8604L13.1756 31.8604L13.1756 32.3262C13.283 32.1621 13.3846 32.044 13.4803 31.9717C13.6521 31.8428 13.8699 31.7784 14.1336 31.7784C14.4637 31.7784 14.7337 31.8648 14.9436 32.0376C15.1536 32.2105 15.2586 32.4971 15.2586 32.8975L15.2586 35.0479L14.4031 35.0479L14.4031 33.1055C14.4031 32.9375 14.3807 32.8086 14.3357 32.7188C14.2537 32.5547 14.0975 32.4727 13.867 32.4727Z"/>
</g>
<g fill="#ffffff" opacity="0.669122" stroke="none" vectornator:layerName="Text 4">
<path d="M63.6446 73.578L63.2979 73.1044C63.0733 72.8179 62.834 72.3915 62.5801 71.8251C62.1277 70.8127 61.9014 69.8166 61.9014 68.8368C61.9014 67.9449 62.0919 67.0595 62.4727 66.1806C62.7299 65.5816 63.1059 64.9371 63.6006 64.247L64.6505 64.247L64.3526 64.7938C63.9424 65.5458 63.6576 66.3336 63.4981 67.1571C63.3939 67.6975 63.3419 68.2867 63.3419 68.9247C63.3419 69.9208 63.4867 70.8371 63.7764 71.6737C63.9457 72.1685 64.2452 72.8033 64.6749 73.578L63.6446 73.578Z"/>
<path d="M67.2764 73.1044L66.9298 73.578L65.8995 73.578C66.3292 72.8033 66.6286 72.1685 66.7979 71.6737C67.0876 70.8371 67.2325 69.9208 67.2325 68.9247C67.2325 68.2867 67.1804 67.6975 67.0762 67.1571C66.9167 66.3336 66.6319 65.5458 66.2217 64.7938L65.9239 64.247L66.9737 64.247C67.4685 64.9371 67.8445 65.5816 68.1016 66.1806C68.4825 67.0595 68.6729 67.9449 68.6729 68.8368C68.6729 69.8166 68.4467 70.8127 67.9942 71.8251C67.7403 72.3915 67.501 72.8179 67.2764 73.1044Z"/>
</g>
<g fill="#ffffff" opacity="0.82621" stroke="none" vectornator:layerName="Text 3">
<path d="M11.9452 67.9937C11.9452 68.6955 12.1229 69.1957 12.4784 69.4942C12.8339 69.7927 13.2235 69.967 13.6474 70.0171L13.6474 70.8169C12.8362 70.7349 12.1651 70.4968 11.6342 70.1026C11.1033 69.7084 10.8378 69.0601 10.8378 68.1577L10.8378 66.7495C10.8378 66.2528 10.7603 65.8609 10.6054 65.5738C10.3228 65.0497 9.7805 64.7443 8.97842 64.6577L8.97842 63.8784C9.78506 63.7827 10.3274 63.4842 10.6054 62.9829C10.7603 62.7049 10.8378 62.3062 10.8378 61.7866L10.8378 60.6724C10.8378 59.8156 11.0235 59.1366 11.3949 58.6353C11.7663 58.134 12.5172 57.8355 13.6474 57.7398L13.6474 58.5191C12.9136 58.5829 12.4169 58.9064 12.1571 59.4898C12.0159 59.8088 11.9452 60.2508 11.9452 60.8159L11.9452 61.5816C11.9452 62.2652 11.8609 62.7892 11.6923 63.1538C11.3869 63.8146 10.7945 64.1861 9.91494 64.2681C10.7899 64.3456 11.3824 64.7284 11.6923 65.4165C11.8609 65.7948 11.9452 66.3098 11.9452 66.9614L11.9452 67.9937Z"/>
<path d="M18.9608 64.2681C18.0858 64.1861 17.4957 63.8169 17.1903 63.1607C17.0217 62.7961 16.9374 62.2697 16.9374 61.5816L16.9374 60.8159C16.9374 60.2144 16.8668 59.7586 16.7255 59.4488C16.4703 58.8928 15.9735 58.5829 15.2353 58.5191L15.2353 57.7398C16.411 57.8355 17.2086 58.2001 17.6278 58.8335C17.9013 59.2391 18.038 59.8521 18.038 60.6724L18.038 61.7866C18.038 62.2971 18.1155 62.6935 18.2704 62.9761C18.553 63.4911 19.0976 63.7919 19.9042 63.8784L19.9042 64.6577C19.1021 64.7398 18.5575 65.0474 18.2704 65.5806C18.1155 65.8723 18.038 66.2619 18.038 66.7495L18.038 68.1577C18.038 69.0783 17.7725 69.73 17.2416 70.1128C16.7107 70.4956 16.0419 70.7303 15.2353 70.8169L15.2353 70.0171C15.7229 69.9533 16.1285 69.7585 16.4521 69.4326C16.7756 69.1068 16.9374 68.6271 16.9374 67.9937L16.9374 66.9614C16.9374 66.3052 17.0217 65.7902 17.1903 65.4165C17.5002 64.7284 18.0904 64.3456 18.9608 64.2681Z"/>
</g>
<g opacity="1" vectornator:layerName="g">
<path d="M41.3638 12.9265L41.3638 22.5111" fill="none" opacity="1" stroke="#ffa726" stroke-linecap="round" stroke-linejoin="miter" stroke-width="2.5" vectornator:layerName="line"/>
<path d="M66.7276 35.6357L66.7276 47.0494" fill="none" opacity="1" stroke="#f57c00" stroke-linecap="round" stroke-linejoin="miter" stroke-width="4.5" vectornator:layerName="line 1"/>
<path d="M16 35.6357L16 47.0494" fill="none" opacity="1" stroke="#f57c00" stroke-linecap="round" stroke-linejoin="miter" stroke-width="4.5" vectornator:layerName="line 2"/>
<path d="M38.1933 10.4768C38.1933 8.82951 39.6128 7.49409 41.3638 7.49409C43.1148 7.49409 44.5343 8.82951 44.5343 10.4768C44.5343 12.1242 43.1148 13.4596 41.3638 13.4596C39.6128 13.4596 38.1933 12.1242 38.1933 10.4768Z" fill="#ffa726" fill-rule="nonzero" opacity="1" stroke="none" vectornator:layerName="circle"/>
<path d="M22.341 24.4225L60.3867 24.4225C63.8887 24.4225 66.7276 27.0934 66.7276 30.388L66.7276 56.6362C66.7276 59.9309 63.8887 62.6017 60.3867 62.6017L22.341 62.6017C18.8389 62.6017 16 59.9309 16 56.6362L16 30.388C16 27.0934 18.8389 24.4225 22.341 24.4225Z" fill="#ffa726" fill-rule="nonzero" opacity="1" stroke="none" vectornator:layerName="rect"/>
<path d="M30.4729 20.2979L52.2548 20.2979C54.6607 20.2979 56.6111 21.4865 56.6111 22.9528L56.6111 24.9441C56.6111 26.4103 54.6607 27.599 52.2548 27.599L30.4729 27.599C28.0669 27.599 26.1165 26.4103 26.1165 24.9441L26.1165 22.9528C26.1165 21.4865 28.0669 20.2979 30.4729 20.2979Z" fill="#f57c00" fill-rule="nonzero" opacity="1" stroke="none" vectornator:layerName="rect"/>
<path d="M28.0478 35.1604L34.3888 35.1604C35.4394 35.1604 36.2911 35.9617 36.2911 36.9501L36.2911 42.9156C36.2911 43.904 35.4394 44.7052 34.3888 44.7052L28.0478 44.7052C26.9972 44.7052 26.1455 43.904 26.1455 42.9156L26.1455 36.9501C26.1455 35.9617 26.9972 35.1604 28.0478 35.1604Z" fill="#ffffff" fill-rule="nonzero" opacity="1" stroke="none" vectornator:layerName="rect"/>
<path d="M48.3389 35.1604L54.6798 35.1604C55.7304 35.1604 56.5821 35.9617 56.5821 36.9501L56.5821 42.9156C56.5821 43.904 55.7304 44.7052 54.6798 44.7052L48.3389 44.7052C47.2883 44.7052 46.4366 43.904 46.4366 42.9156L46.4366 36.9501C46.4366 35.9617 47.2883 35.1604 48.3389 35.1604Z" fill="#ffffff" fill-rule="nonzero" opacity="1" stroke="none" vectornator:layerName="rect"/>
<path d="M29.316 36.9501L33.1206 36.9501C33.821 36.9501 34.3888 37.4842 34.3888 38.1432L34.3888 41.7225C34.3888 42.3814 33.821 42.9156 33.1206 42.9156L29.316 42.9156C28.6156 42.9156 28.0478 42.3814 28.0478 41.7225L28.0478 38.1432C28.0478 37.4842 28.6156 36.9501 29.316 36.9501Z" fill="#7f52ff" fill-rule="nonzero" opacity="1" stroke="none" vectornator:layerName="rect"/>
<path d="M49.6071 36.9501L53.4116 36.9501C54.112 36.9501 54.6798 37.4842 54.6798 38.1432L54.6798 41.7225C54.6798 42.3814 54.112 42.9156 53.4116 42.9156L49.6071 42.9156C48.9067 42.9156 48.3389 42.3814 48.3389 41.7225L48.3389 38.1432C48.3389 37.4842 48.9067 36.9501 49.6071 36.9501Z" fill="#7f52ff" fill-rule="nonzero" opacity="1" stroke="none" vectornator:layerName="rect"/>
<path d="M29.9501 38.1432L30.5842 38.1432C30.9344 38.1432 31.2183 38.4103 31.2183 38.7397L31.2183 39.3363C31.2183 39.6657 30.9344 39.9328 30.5842 39.9328L29.9501 39.9328C29.5999 39.9328 29.316 39.6657 29.316 39.3363L29.316 38.7397C29.316 38.4103 29.5999 38.1432 29.9501 38.1432Z" fill="#ffffff" fill-rule="nonzero" opacity="0.8" stroke="none" vectornator:layerName="rect"/>
<path d="M50.2412 38.1432L50.8753 38.1432C51.2255 38.1432 51.5093 38.4103 51.5093 38.7397L51.5093 39.3363C51.5093 39.6657 51.2255 39.9328 50.8753 39.9328L50.2412 39.9328C49.891 39.9328 49.6071 39.6657 49.6071 39.3363L49.6071 38.7397C49.6071 38.4103 49.891 38.1432 50.2412 38.1432Z" fill="#ffffff" fill-rule="nonzero" opacity="0.8" stroke="none" vectornator:layerName="rect"/>
<path d="M32.4865 49.4776L50.2412 49.4776C51.642 49.4776 52.7775 50.5459 52.7775 51.8638L52.7775 51.8638C52.7775 53.1817 51.642 54.25 50.2412 54.25L32.4865 54.25C31.0857 54.25 29.9501 53.1817 29.9501 51.8638L29.9501 51.8638C29.9501 50.5459 31.0857 49.4776 32.4865 49.4776Z" fill="#ffffff" fill-rule="nonzero" opacity="1" stroke="none" vectornator:layerName="rect"/>
<path d="M33.7547 49.4776L33.7547 54.25" fill="none" opacity="1" stroke="#7f52ff" stroke-linecap="butt" stroke-linejoin="miter" stroke-width="1.5" vectornator:layerName="line"/>
<path d="M37.5592 49.4776L37.5592 54.25" fill="none" opacity="1" stroke="#7f52ff" stroke-linecap="butt" stroke-linejoin="miter" stroke-width="1.5" vectornator:layerName="line"/>
<path d="M41.3638 49.4776L41.3638 54.25" fill="none" opacity="1" stroke="#7f52ff" stroke-linecap="butt" stroke-linejoin="miter" stroke-width="1.5" vectornator:layerName="line"/>
<path d="M45.1684 49.4776L45.1684 54.25" fill="none" opacity="1" stroke="#7f52ff" stroke-linecap="butt" stroke-linejoin="miter" stroke-width="1.5" vectornator:layerName="line"/>
<path d="M48.973 49.4776L48.973 54.25" fill="none" opacity="1" stroke="#7f52ff" stroke-linecap="butt" stroke-linejoin="miter" stroke-width="1.5" vectornator:layerName="line"/>
</g>
<path d="M40.3645 46.0682C40.3748 45.7922 40.4781 45.5459 40.6367 45.3707C40.7954 45.1956 41.0094 45.0915 41.2412 45.1002L41.4011 45.1061L41.5609 45.1121C41.7927 45.1207 41.9984 45.2404 42.1436 45.4269C42.2888 45.6134 42.3734 45.8668 42.3631 46.1427L42.3631 46.1427L42.3631 46.1427C42.3528 46.4187 42.2496 46.665 42.0909 46.8402C41.9322 47.0153 41.7182 47.1193 41.4864 47.1107L41.3266 47.1047L41.1667 47.0988C40.9349 47.0901 40.7292 46.9705 40.584 46.784C40.4389 46.5975 40.3542 46.3441 40.3645 46.0682L40.3645 46.0682" fill="#ffa726" fill-rule="nonzero" opacity="1" stroke="#7f52ff" stroke-linecap="butt" stroke-linejoin="miter" stroke-width="0.5" vectornator:layerName="Rectangle 1"/>
<path d="M39.8 10.5C39.8 9.67157 40.4716 9 41.3 9C42.1284 9 42.8 9.67157 42.8 10.5C42.8 11.3284 42.1284 12 41.3 12C40.4716 12 39.8 11.3284 39.8 10.5Z" fill="#f57c00" fill-rule="nonzero" opacity="1" stroke="#f57c00" stroke-linecap="butt" stroke-linejoin="miter" stroke-width="0.5" vectornator:layerName="Oval 1"/>
<g fill="#ffffff" opacity="0.64593" stroke="none" vectornator:layerName="Text 1">
<path d="M53.208 18.3457L62.3408 14.7676L62.3408 16.1738L54.8721 18.9941L62.3408 21.8223L62.3408 23.2285L53.208 19.6426L53.208 18.3457Z"/>
<path d="M72.6846 19.6582L63.5518 23.2285L63.5518 21.8223L71.0127 18.9941L63.5518 16.1738L63.5518 14.7676L72.6846 18.3457L72.6846 19.6582Z"/>
</g>
<g fill="#ffffff" opacity="0.249093" stroke="none" vectornator:layerName="Text 5">
<path d="M26.5146 17.8288C26.245 17.8796 26.0556 18.0749 25.9462 18.4147C25.8915 18.5827 25.8642 18.7487 25.8642 18.9128C25.8642 18.9323 25.8652 18.9489 25.8671 18.9626C25.8691 18.9762 25.872 19.0065 25.8759 19.0534L26.5146 19.0534L26.5146 20.3307L25.2665 20.3307L25.2665 19.153C25.2665 18.5749 25.3818 18.1296 25.6122 17.8171C25.8427 17.5046 26.1435 17.3249 26.5146 17.278L26.5146 17.8288ZM28.4892 17.8288C28.2743 17.8639 28.1112 17.985 27.9999 18.1921C27.8886 18.3991 27.8329 18.6374 27.8329 18.9069C27.8329 18.9303 27.8339 18.9538 27.8359 18.9772C27.8378 19.0006 27.8427 19.026 27.8505 19.0534L28.4892 19.0534L28.4892 20.3307L27.2353 20.3307L27.2353 19.153C27.2353 18.6881 27.3329 18.2731 27.5282 17.9079C27.7236 17.5426 28.0439 17.3327 28.4892 17.278L28.4892 17.8288Z"/>
<path d="M32.2314 19.862C32.5243 19.8073 32.7177 19.5924 32.8114 19.2174C32.8661 18.9948 32.8857 18.8014 32.87 18.6374L32.2314 18.6374L32.2314 17.36L33.4853 17.36L33.4853 18.5378C33.4853 19.0026 33.3896 19.4176 33.1982 19.7829C33.0068 20.1481 32.6845 20.3581 32.2314 20.4128L32.2314 19.862ZM30.2626 19.862C30.5556 19.8073 30.7509 19.5924 30.8486 19.2174C30.9032 18.9948 30.9208 18.8014 30.9013 18.6374L30.2626 18.6374L30.2626 17.36L31.5107 17.36L31.5107 18.5378C31.5107 19.0026 31.415 19.4157 31.2236 19.777C31.0321 20.1383 30.7118 20.3503 30.2626 20.4128L30.2626 19.862Z"/>
</g>
<g fill="#ffffff" opacity="0.311421" stroke="none" vectornator:layerName="Text 2">
<path d="M12.0409 11.1509L12.0409 12.0649L11.0214 12.0649L11.0214 18.5029L12.0409 18.5029L12.0409 19.4214L9.83486 19.4214L9.83486 11.1509L12.0409 11.1509Z"/>
<path d="M14.4955 18.5029L14.4955 12.0474L13.476 12.0474L13.476 11.1509L15.682 11.1509L15.682 19.4214L13.476 19.4214L13.476 18.5029L14.4955 18.5029Z"/>
</g>
</g>
</svg>
