<?xml version="1.0" encoding="UTF-8" standalone="no"?>
<!DOCTYPE svg PUBLIC "-//W3C//DTD SVG 1.1//EN" "http://www.w3.org/Graphics/SVG/1.1/DTD/svg11.dtd">
<!-- Created with Vectornator (http://vectornator.io/) -->
<svg height="100%" stroke-miterlimit="10" style="fill-rule:nonzero;clip-rule:evenodd;stroke-linecap:round;stroke-linejoin:round;" version="1.1" viewBox="0 0 80 80" width="100%" xml:space="preserve" xmlns="http://www.w3.org/2000/svg" xmlns:vectornator="http://vectornator.io" xmlns:xlink="http://www.w3.org/1999/xlink">
<defs/>
<g id="Layer-1" vectornator:layerName="Layer-1">
<g opacity="1" vectornator:layerName="g">
<path d="M39.9556 11.6546L39.9556 24.2493" fill="none" opacity="1" stroke="#ffffff" stroke-linecap="round" stroke-linejoin="miter" stroke-width="4.5" vectornator:layerName="line"/>
<path d="M76.6451 41.4957L76.6451 56.4941" fill="none" opacity="1" stroke="#ffffff" stroke-linecap="round" stroke-linejoin="miter" stroke-width="5" vectornator:layerName="line 1"/>
<path d="M3.2662 41.4957L3.2662 56.4941" fill="none" opacity="1" stroke="#ffffff" stroke-linecap="round" stroke-linejoin="miter" stroke-width="5" vectornator:layerName="line 2"/>
<path d="M34.1655 9.13592C34.1655 12.3469 36.7578 14.95 39.9556 14.95C43.1534 14.95 45.7458 12.3469 45.7458 9.13592C45.7458 5.92491 43.1534 3.32186 39.9556 3.32186C36.7578 3.32186 34.1655 5.92491 34.1655 9.13592Z" fill="#ffffff" fill-rule="nonzero" opacity="1" stroke="none" vectornator:layerName="circle"/>
<path d="M13.9123 26.7611L65.999 26.7611C70.7934 26.7611 74.6801 30.2707 74.6801 34.6001L74.6801 69.0917C74.6801 73.4211 70.7934 76.9307 65.999 76.9307L13.9123 76.9307C9.11788 76.9307 5.23122 73.4211 5.23122 69.0917L5.23122 34.6001C5.23122 30.2707 9.11788 26.7611 13.9123 26.7611Z" fill="none" opacity="1" stroke="#ffffff" stroke-linecap="butt" stroke-linejoin="miter" stroke-width="5" vectornator:layerName="rect"/>
<path d="M25.0454 21.341L54.8659 21.341C58.1598 21.341 60.8301 22.903 60.8301 24.8298L60.8301 27.4463C60.8301 29.3731 58.1598 30.9351 54.8659 30.9351L25.0454 30.9351C21.7515 30.9351 19.0812 29.3731 19.0812 27.4463L19.0812 24.8298C19.0812 22.903 21.7515 21.341 25.0454 21.341Z" fill="#ffffff" fill-rule="nonzero" opacity="1" stroke="#ffffff" stroke-linecap="butt" stroke-linejoin="miter" stroke-width="3.01" vectornator:layerName="rect"/>
<path d="M21.7253 40.8713L30.4064 40.8713C31.8448 40.8713 33.0108 41.9242 33.0108 43.223L33.0108 51.062C33.0108 52.3608 31.8448 53.4137 30.4064 53.4137L21.7253 53.4137C20.287 53.4137 19.121 52.3608 19.121 51.062L19.121 43.223C19.121 41.9242 20.287 40.8713 21.7253 40.8713Z" fill="#ffffff" fill-rule="nonzero" opacity="1" stroke="none" vectornator:layerName="rect"/>
<path d="M49.5049 40.8713L58.186 40.8713C59.6243 40.8713 60.7903 41.9242 60.7903 43.223L60.7903 51.062C60.7903 52.3608 59.6243 53.4137 58.186 53.4137L49.5049 53.4137C48.0665 53.4137 46.9005 52.3608 46.9005 51.062L46.9005 43.223C46.9005 41.9242 48.0665 40.8713 49.5049 40.8713Z" fill="#ffffff" fill-rule="nonzero" opacity="1" stroke="none" vectornator:layerName="rect"/>
<path d="M23.4615 43.223L28.6702 43.223C29.6291 43.223 30.4064 43.9249 30.4064 44.7908L30.4064 49.4942C30.4064 50.3601 29.6291 51.062 28.6702 51.062L23.4615 51.062C22.5027 51.062 21.7253 50.3601 21.7253 49.4942L21.7253 44.7908C21.7253 43.9249 22.5027 43.223 23.4615 43.223Z" fill="#6d6c72" fill-rule="nonzero" opacity="1" stroke="none" vectornator:layerName="rect"/>
<path d="M51.2411 43.223L56.4498 43.223C57.4086 43.223 58.186 43.9249 58.186 44.7908L58.186 49.4942C58.186 50.3601 57.4086 51.062 56.4498 51.062L51.2411 51.062C50.2822 51.062 49.5049 50.3601 49.5049 49.4942L49.5049 44.7908C49.5049 43.9249 50.2822 43.223 51.2411 43.223Z" fill="#6d6c72" fill-rule="nonzero" opacity="1" stroke="none" vectornator:layerName="rect"/>
<path d="M24.3297 44.7908L25.1978 44.7908C25.6772 44.7908 26.0659 45.1418 26.0659 45.5747L26.0659 46.3586C26.0659 46.7915 25.6772 47.1425 25.1978 47.1425L24.3297 47.1425C23.8502 47.1425 23.4615 46.7915 23.4615 46.3586L23.4615 45.5747C23.4615 45.1418 23.8502 44.7908 24.3297 44.7908Z" fill="#ffffff" fill-rule="nonzero" opacity="0.8" stroke="none" vectornator:layerName="rect"/>
<path d="M52.1092 44.7908L52.9773 44.7908C53.4568 44.7908 53.8454 45.1418 53.8454 45.5747L53.8454 46.3586C53.8454 46.7915 53.4568 47.1425 52.9773 47.1425L52.1092 47.1425C51.6298 47.1425 51.2411 46.7915 51.2411 46.3586L51.2411 45.5747C51.2411 45.1418 51.6298 44.7908 52.1092 44.7908Z" fill="#ffffff" fill-rule="nonzero" opacity="0.8" stroke="none" vectornator:layerName="rect"/>
<path d="M27.8021 59.6849L52.1092 59.6849C54.027 59.6849 55.5816 61.0888 55.5816 62.8205L55.5816 62.8205C55.5816 64.5523 54.027 65.9561 52.1092 65.9561L27.8021 65.9561C25.8843 65.9561 24.3297 64.5523 24.3297 62.8205L24.3297 62.8205C24.3297 61.0888 25.8843 59.6849 27.8021 59.6849Z" fill="#ffffff" fill-rule="nonzero" opacity="1" stroke="none" vectornator:layerName="rect"/>
<path d="M29.5383 59.6849L29.5383 65.9561" fill="none" opacity="1" stroke="#6d6c72" stroke-linecap="butt" stroke-linejoin="miter" stroke-width="1.5" vectornator:layerName="line"/>
<path d="M34.747 59.6849L34.747 65.9561" fill="none" opacity="1" stroke="#6d6c72" stroke-linecap="butt" stroke-linejoin="miter" stroke-width="1.5" vectornator:layerName="line"/>
<path d="M39.9556 59.6849L39.9556 65.9561" fill="none" opacity="1" stroke="#6d6c72" stroke-linecap="butt" stroke-linejoin="miter" stroke-width="1.5" vectornator:layerName="line"/>
<path d="M45.1643 59.6849L45.1643 65.9561" fill="none" opacity="1" stroke="#6d6c72" stroke-linecap="butt" stroke-linejoin="miter" stroke-width="1.5" vectornator:layerName="line"/>
<path d="M50.373 59.6849L50.373 65.9561" fill="none" opacity="1" stroke="#6d6c72" stroke-linecap="butt" stroke-linejoin="miter" stroke-width="1.5" vectornator:layerName="line"/>
</g>
<path d="M38.839 54.1121C38.8569 53.6794 39.0362 53.2933 39.3116 53.0186C39.5871 52.744 39.9587 52.5809 40.3612 52.5944L40.6387 52.6038L40.9163 52.6131C41.3187 52.6267 41.6759 52.8143 41.9279 53.1067C42.1799 53.3991 42.3269 53.7963 42.309 54.2289L42.309 54.2289L42.309 54.2289C42.2912 54.6616 42.1119 55.0478 41.8364 55.3224C41.5609 55.597 41.1893 55.7601 40.7868 55.7466L40.5093 55.7372L40.2318 55.7279C39.8293 55.7143 39.4722 55.5267 39.2201 55.2343C38.9681 54.9419 38.8211 54.5447 38.839 54.1121L38.839 54.1121" fill="none" opacity="1" stroke="#ffffff" stroke-linecap="butt" stroke-linejoin="miter" stroke-width="1.5" vectornator:layerName="Rectangle 1"/>
</g>
</svg>
